<?xml version="1.0" encoding="utf-8"?>
<!-- Generator: Adobe Illustrator 21.0.0, SVG Export Plug-In . SVG Version: 6.00 Build 0)  -->
<svg version="1.1" id="Layer_1" xmlns="http://www.w3.org/2000/svg" xmlns:xlink="http://www.w3.org/1999/xlink" x="0px" y="0px"
	 viewBox="0 0 97 121.2" style="enable-background:new 0 0 97 121.2;" xml:space="preserve">
<style type="text/css">
	.st0{fill:#097C84;}
</style>
<g>
	<polygon class="st0" points="48.5,24.1 66.3,43.6 69.2,41 48.5,18.3 27.8,41 30.7,43.6 	"/>
	<path class="st0" d="M33.5,42.6v17.9h30V42.6l-15-16.4L33.5,42.6z M52.9,47.6c0,2.4-2,4.4-4.4,4.4s-4.4-2-4.4-4.4s2-4.4,4.4-4.4
		S52.9,45.1,52.9,47.6z"/>
	<rect x="13.2" y="80.7" class="st0" width="3.9" height="5.1"/>
	<rect x="22.4" y="80.7" class="st0" width="3.9" height="5.1"/>
	<rect x="31.6" y="80.7" class="st0" width="3.9" height="5.1"/>
	<rect x="67.1" y="81.3" class="st0" width="4.5" height="3.9"/>
	<rect x="77.4" y="81.3" class="st0" width="4.5" height="3.9"/>
	<path class="st0" d="M0.5,74.6l4.9,17.3h86.2l4.9-17.3C96.5,74.6,0.5,74.6,0.5,74.6z M88.6,88H8.4l-2.7-9.4h85.6L88.6,88z"/>
	<path class="st0" d="M90.6,5.1H6.4v65.6h84.3V5.1H90.6z M81.9,65.9H15.1V13.8h66.8V65.9z"/>
</g>
</svg>
