<?xml version="1.0" encoding="utf-8"?>
<!DOCTYPE svg PUBLIC "-//W3C//DTD SVG 1.1//EN" "http://www.w3.org/Graphics/SVG/1.1/DTD/svg11.dtd">
<svg version="1.1" id="Layer_1" xmlns="http://www.w3.org/2000/svg" xmlns:xlink="http://www.w3.org/1999/xlink" x="0px" y="0px"
	 viewBox="0 0 185 75" enable-background="new 0 0 185 75" xml:space="preserve">
<g>
	<g>
		<g>
			<path fill="#137E84" d="M58.5,45.1c0.4-0.9,0.6-1.9,0.6-3.1c0-1.8-0.8-3.4-2.1-4.5c-0.4-0.3-0.7-0.5-1.2-0.8l-0.1-0.1l0.1-0.1
				c0.8-0.7,1.8-2,1.8-4.4c0-2.1-0.7-3.7-2.2-4.7c-1.2-0.9-2.9-1.3-5.1-1.3h-6.4c-0.4,0-0.7,0.3-0.7,0.7v21.1c0,0.4,0.3,0.7,0.7,0.7
				h7.4c2.3,0,4.2-0.5,5.5-1.5C57.5,46.7,58.1,46,58.5,45.1z M45.3,28.4h5c1.8,0,3.1,0.3,3.9,0.9c0.5,0.4,1.3,1.1,1.3,3
				c0,3.4-2.7,3.6-3.5,3.6h-6.8V28.4z M51.2,46.6h-5.9V38H52c3,0,5,1.7,5,4C57,43.2,57,46.6,51.2,46.6z"/>
			<path fill="#137E84" d="M37.5,48.8c0.1,0,0.1,0,0.2,0c0.3-0.1,0.4-0.3,0.4-0.6V0H36v44L22.2,26.4c-0.1-0.2-0.3-0.3-0.5-0.3
				c-0.1,0-0.1,0-0.2,0c-0.3,0.1-0.4,0.3-0.4,0.6V75h2.1V31L37,48.6C37.1,48.7,37.3,48.8,37.5,48.8z"/>
			<path fill="#137E84" d="M14.3,45.4c2.2-2.6,2.5-6,2.5-7.8c0-1.5-0.2-5.3-2.5-8c-0.9-1.2-2.1-2-3.6-2.6c-1.2-0.5-2.5-0.7-4-0.7
				H0.7c-0.4,0-0.7,0.3-0.7,0.7v21.1c0,0.4,0.3,0.7,0.7,0.7h6.1c1.4,0,2.7-0.2,4-0.7C12.2,47.4,13.4,46.6,14.3,45.4z M6.8,46.6H2.1
				V28.4h4.7c1.7,0,4.1,0.4,5.9,2.6c1.9,2.3,2,5.7,2,6.7c0,1.5-0.3,4.3-2,6.4C10.9,46.2,8.5,46.6,6.8,46.6z"/>
		</g>
	</g>
	<g>
		<path fill="#127E84" d="M83.3,28.9h10.3v1.7h-8.2v6.5H93v1.8h-7.6v6.6h8.8v1.8H83.3V28.9z"/>
		<path fill="#127E84" d="M97.9,33.1h2.1v14.2h-2.1V33.1z M97.9,29.9v-2.4h2v2.4H97.9z"/>
		<path fill="#127E84" d="M103.6,40.4c0-5.5,2.7-7.7,6.2-7.7c3.6,0,5.3,2.4,5.3,7.1v0.8h-9.4c0.1,4.4,2.3,5.3,5,5.3
			c1.4,0,2.4-0.2,3.8-0.7l0.4,1.7c-1.1,0.4-2.7,0.8-4.5,0.8C106.2,47.6,103.6,45.8,103.6,40.4z M112.9,39c0-2.9-1-4.7-3.3-4.7
			c-2.1,0-3.6,1.5-3.9,4.7H112.9z"/>
		<path fill="#127E84" d="M118.5,33.1h2.1v1.6c1.5-1.1,2.9-2,5.1-2c4,0,4.3,3,4.3,5.4v9.2h-2v-8.8c0-2.4-0.4-4-2.8-4
			c-1.8,0-3.3,0.9-4.6,1.7v11h-2.1V33.1z"/>
		<path fill="#127E84" d="M133.4,40.5c0-5.4,2.9-7.8,7-7.8c0.9,0,1.6,0.1,2.5,0.4v-5.4h2.1v19.6h-2.1v-1.4c-1,0.9-2.1,1.6-3.8,1.6
			C136.8,47.5,133.4,46.3,133.4,40.5z M142.9,44.2v-9.4c-0.4-0.2-1.4-0.4-2.6-0.4c-3.7,0-4.8,2.9-4.8,6c0,3.8,1.7,5.4,3.9,5.4
			C141,45.8,142.3,44.8,142.9,44.2z"/>
		<path fill="#127E84" d="M148.6,40.3c0-4.9,2.7-7.6,6.6-7.6c4,0,6.2,2.7,6.2,7.4c0,5.1-2.8,7.5-6.5,7.5
			C151,47.6,148.6,45,148.6,40.3z M159.3,40.2c0-2.7-0.8-5.8-4.3-5.8s-4.4,3.1-4.4,5.8c0,2.9,1,5.7,4.4,5.7
			C158.4,45.9,159.3,43,159.3,40.2z"/>
		<path fill="#127E84" d="M164.9,33.1h2.1v1.7c1.4-1.1,2.8-2,4.7-2c2,0,3.3,0.9,3.8,2.1c1.2-1,2.9-2.1,5.2-2.1c4.1,0,4.3,3,4.3,5.4
			v9.2h-2.1v-8.8c0-2.2-0.3-4-2.8-4c-1.6,0-3,0.8-4.3,1.7c0.1,0.6,0.2,1.2,0.2,1.8v9.2h-2v-8.8c0-2.2-0.3-4-2.7-4
			c-1.6,0-3,0.8-4.3,1.8v10.9h-2.1V33.1z"/>
	</g>
</g>
</svg>
