<svg xmlns="http://www.w3.org/2000/svg" viewBox="0 0 600 600"><defs><style>.cls-1{fill:#097c84;}.cls-2,.cls-8,.cls-9{fill:none;stroke:#6bb0b5;stroke-width:3px;}.cls-2,.cls-8{stroke-miterlimit:10;}.cls-3{font-size:72px;letter-spacing:0.2em;}.cls-3,.cls-6{fill:#fff;font-family:Verdana, Verdana;}.cls-4{fill:#f67f00;}.cls-5{fill:#6bb0b5;}.cls-6{font-size:24px;}.cls-7{letter-spacing:-0.03em;}.cls-8{opacity:0.1;isolation:isolate;}.cls-9{stroke-linecap:round;stroke-linejoin:round;}</style></defs><title>dnb_visitt_footer</title><g id="Frame"><rect class="cls-1" x="87.87" y="87.87" width="424.26" height="424.26" transform="translate(300 -124.26) rotate(45)"/><rect class="cls-2" x="97.99" y="97.99" width="404.02" height="404.02" transform="translate(300 -124.26) rotate(45)"/></g><g id="Center"><text class="cls-3" transform="translate(172.51 324)">Visitt</text><line class="cls-4" x1="169.94" y1="346.19" x2="430.78" y2="346.19"/><path class="cls-5" d="M169.94,347.69H430.78a1.5,1.5,0,0,0,0-3H169.94a1.5,1.5,0,0,0,0,3Z"/><text class="cls-6" transform="translate(184.36 383)">VI<tspan class="cls-7" x="26.51" y="0">R</tspan><tspan x="42.49" y="0">TUELL VISNING</tspan></text></g><g id="SVG_Icon" data-name="SVG Icon"><g id="Hotel_Room" data-name="Hotel Room"><g id="_Group_" data-name="&lt;Group&gt;"><path id="_Path_" data-name="&lt;Path&gt;" class="cls-8" d="M355.16,242.74H333.1a1.84,1.84,0,0,1-1.84-1.84V226.19a1.84,1.84,0,0,1,1.84-1.84h22.06a1.84,1.84,0,0,1,1.84,1.84V240.9A1.84,1.84,0,0,1,355.16,242.74Z"/><path id="_Path_2" data-name="&lt;Path&gt;" class="cls-8" d="M320.23,234.47v-12a5.53,5.53,0,0,0-5.52-5.52H248.52a5.53,5.53,0,0,0-5.52,5.52v12Z"/><path id="_Path_3" data-name="&lt;Path&gt;" class="cls-9" d="M318.39,242.74H244.84A1.84,1.84,0,0,1,243,240.9V222.52a5.53,5.53,0,0,1,5.52-5.52h66.19a5.53,5.53,0,0,1,5.52,5.52V240.9A1.84,1.84,0,0,1,318.39,242.74Z"/><path id="_Path_4" data-name="&lt;Path&gt;" class="cls-9" d="M355.16,242.74H333.1a1.84,1.84,0,0,1-1.84-1.84V226.19a1.84,1.84,0,0,1,1.84-1.84h22.06a1.84,1.84,0,0,1,1.84,1.84V240.9A1.84,1.84,0,0,1,355.16,242.74Z"/><line id="_Path_5" data-name="&lt;Path&gt;" class="cls-9" x1="243" y1="234.47" x2="320.23" y2="234.47"/><line id="_Path_6" data-name="&lt;Path&gt;" class="cls-9" x1="249.44" y1="246.42" x2="249.44" y2="242.74"/><line id="_Path_7" data-name="&lt;Path&gt;" class="cls-9" x1="313.79" y1="246.42" x2="313.79" y2="242.74"/><line id="_Path_8" data-name="&lt;Path&gt;" class="cls-9" x1="334.94" y1="246.42" x2="334.94" y2="242.74"/><line id="_Path_9" data-name="&lt;Path&gt;" class="cls-9" x1="353.32" y1="246.42" x2="353.32" y2="242.74"/><path id="_Path_10" data-name="&lt;Path&gt;" class="cls-9" d="M279.77,217H254a1.84,1.84,0,0,1-1.84-1.84h0a7.38,7.38,0,0,1,7.35-7.35h14.71a7.38,7.38,0,0,1,7.35,7.35h0A1.84,1.84,0,0,1,279.77,217Z"/><path id="_Path_11" data-name="&lt;Path&gt;" class="cls-9" d="M309.19,217H283.45a1.84,1.84,0,0,1-1.84-1.84h0a7.38,7.38,0,0,1,7.35-7.35h14.71a7.38,7.38,0,0,1,7.35,7.35h0A1.84,1.84,0,0,1,309.19,217Z"/><line id="_Path_12" data-name="&lt;Path&gt;" class="cls-9" x1="341.37" y1="233.55" x2="346.89" y2="233.55"/><path id="_Path_13" data-name="&lt;Path&gt;" class="cls-9" d="M344.13,206c-6.43,0-6.43,4.18-6.43,9.19s4.12,9.19,6.43,9.19,6.43-4.18,6.43-9.19S350.86,206,344.13,206Z"/><polygon id="_Path_14" data-name="&lt;Path&gt;" class="cls-9" points="332.18 204.13 357 204.13 347.81 187.58 340.45 187.58 332.18 204.13"/></g></g></g></svg>