<?xml version="1.0" encoding="utf-8"?>
<!-- Generator: Adobe Illustrator 21.0.0, SVG Export Plug-In . SVG Version: 6.00 Build 0)  -->
<svg version="1.1" id="Layer_1" xmlns="http://www.w3.org/2000/svg" xmlns:xlink="http://www.w3.org/1999/xlink" x="0px" y="0px"
	 viewBox="0 0 48 60" style="enable-background:new 0 0 48 60;" xml:space="preserve">
<style type="text/css">
	.st0{fill:#097C84;}
</style>
<g>
	<path class="st0" d="M3.8,26.1l13.6,7.6c1.2,0.7,2.8,0.2,3.4-1l0.2-0.4c0.3-0.6,0.4-1.2,0.2-1.9c-0.2-0.6-0.6-1.2-1.2-1.5l-9.8-5.5
		l-3.8-2.1C6,21.1,5.6,21,5.2,21c-0.9,0-1.7,0.5-2.2,1.3l-0.2,0.4c-0.3,0.6-0.4,1.2-0.2,1.9C2.8,25.3,3.2,25.8,3.8,26.1z"/>
	<path class="st0" d="M15.2,5.6l13.6,7.6c1.2,0.7,2.8,0.2,3.4-1l0.2-0.4c0.3-0.6,0.4-1.2,0.2-1.9c-0.2-0.6-0.6-1.2-1.2-1.5L17.9,0.8
		c-0.4-0.2-0.8-0.3-1.2-0.3c-0.9,0-1.7,0.5-2.2,1.3l-0.2,0.4c-0.3,0.6-0.4,1.2-0.2,1.9C14.2,4.7,14.7,5.2,15.2,5.6z"/>
	<rect x="10.7" y="10.7" transform="matrix(0.4868 -0.8735 0.8735 0.4868 -5.9345 24.3144)" class="st0" width="14" height="13.1"/>
	<path class="st0" d="M46.5,31L26.1,19.6l-2,3.5l20.4,11.3c0.3,0.2,0.6,0.3,1,0.3c0.7,0,1.4-0.4,1.8-1C47.8,32.7,47.4,31.5,46.5,31z
		"/>
	<path class="st0" d="M41,39.8H4c-1.9,0-3.4,1.7-3.4,3.9c0,2.1,1.5,3.9,3.4,3.9h37c1.9,0,3.4-1.7,3.4-3.9S42.9,39.8,41,39.8z"/>
</g>
</svg>
