<?xml version="1.0" encoding="utf-8"?>
<!-- Generator: Adobe Illustrator 21.1.0, SVG Export Plug-In . SVG Version: 6.00 Build 0)  -->
<svg version="1.1" id="Layer_1" xmlns="http://www.w3.org/2000/svg" xmlns:xlink="http://www.w3.org/1999/xlink" x="0px" y="0px"
	 viewBox="0 0 97 121.2" style="enable-background:new 0 0 97 121.2;" xml:space="preserve">
<style type="text/css">
	.st0{fill:#097C84;}
</style>
<g>
	<path class="st0" d="M13.2,42.4v54.1h36.3h21.6h12.7V42.4l-35.3-30L13.2,42.4z M79.9,92.5h-8.8V75.6c0-6-4.8-10.8-10.8-10.8
		s-10.8,4.8-10.8,10.8v16.9H17.1V44.3l31.4-26.6l31.4,26.6V92.5z"/>
	<polygon class="st0" points="48.5,0.5 1.5,40.3 4.1,43.4 48.5,5.7 92.9,43.4 95.5,40.3 	"/>
	<path class="st0" d="M39.4,36.5c0,5,4.1,9.1,9.1,9.1s9.1-4.1,9.1-9.1s-4.1-9.1-9.1-9.1S39.4,31.5,39.4,36.5z M53.6,36.5
		c0,2.8-2.3,5.1-5.1,5.1s-5.1-2.3-5.1-5.1s2.3-5.1,5.1-5.1S53.6,33.7,53.6,36.5z"/>
	<rect x="22.1" y="67.9" class="st0" width="21.6" height="13.9"/>
	<rect x="22.1" y="50.1" class="st0" width="21.6" height="13.9"/>
	<rect x="50.8" y="51.1" class="st0" width="6.5" height="4"/>
	<rect x="65.9" y="51.1" class="st0" width="6.5" height="4"/>
</g>
</svg>
