<?xml version="1.0" encoding="utf-8"?>
<!-- Generator: Adobe Illustrator 21.0.0, SVG Export Plug-In . SVG Version: 6.00 Build 0)  -->
<svg version="1.1" id="Layer_1" xmlns="http://www.w3.org/2000/svg" xmlns:xlink="http://www.w3.org/1999/xlink" x="0px" y="0px"
	 viewBox="0 0 97 121.2" style="enable-background:new 0 0 97 121.2;" xml:space="preserve">
<style type="text/css">
	.st0{fill:#097C84;}
	.st1{fill:#F67F00;}
</style>
<g>
	<path class="st0" d="M96.5,44.7l-48-41.3l-48,41.3h13.7v49h68.7v-49C82.9,44.7,96.5,44.7,96.5,44.7z M75.4,86.2H21.6V48.4h53.7
		L75.4,86.2L75.4,86.2z M10.6,40.9L48.5,8.3l37.9,32.6h-3.6H14.2C14.2,40.9,10.6,40.9,10.6,40.9z"/>
	<polygon class="st0" points="25.7,35.3 71.3,35.3 48.5,15.7 	"/>
	<path class="st1" d="M47.1,81.2l1.4,1.5l1.4-1.5c0,0,2.7-2.9,9.9-10.9c4.1-4.6,4.2-8.4,3.6-10.8c-0.9-3.4-3.7-5.8-6.2-6.6
		c-2.8-1-6,0.5-8.7,3.9c-2.7-3.4-5.8-4.9-8.7-3.9c-2.4,0.8-5.3,3.2-6.2,6.6c-0.6,2.4-0.5,6.2,3.6,10.8
		C44.4,78.3,47.1,81.2,47.1,81.2z"/>
	<rect x="24.6" y="52.2" class="st0" width="3.7" height="5.2"/>
	<rect x="24.6" y="60.5" class="st0" width="3.7" height="5.2"/>
	<rect x="24.6" y="68.8" class="st0" width="3.7" height="5.2"/>
	<rect x="24.6" y="77.2" class="st0" width="3.7" height="5.2"/>
	<rect x="68.7" y="52.2" class="st0" width="3.7" height="5.2"/>
	<rect x="68.7" y="60.5" class="st0" width="3.7" height="5.2"/>
	<rect x="68.7" y="68.8" class="st0" width="3.7" height="5.2"/>
	<rect x="68.7" y="77.2" class="st0" width="3.7" height="5.2"/>
</g>
</svg>
