<?xml version="1.0" encoding="utf-8"?>
<!-- Generator: Adobe Illustrator 21.0.0, SVG Export Plug-In . SVG Version: 6.00 Build 0)  -->
<svg version="1.1" id="Layer_1" xmlns="http://www.w3.org/2000/svg" xmlns:xlink="http://www.w3.org/1999/xlink" x="0px" y="0px"
	 viewBox="0 0 97 121.2" style="enable-background:new 0 0 97 121.2;" xml:space="preserve">
<style type="text/css">
	.st0{fill:#097C84;}
</style>
<g>
	<path class="st0" d="M24.9,0.5v49.9L4.1,74.8l0,0l-1.7,2c-2.6,3-2.4,7.6,0.4,10.4c1.5,1.5,3.4,2.2,5.4,2.2c1.8,0,3.6-0.6,5-1.8
		l5.1-4.3l0,0l6.7-5.7v18.9h42.5v-4H28.9V74.2l12.5-10.7H86v-4H46.1l5.8-5l0.4-0.1l1.2-2.8H86v-4H55.4l3.4-7.8H86v-4H60.6L64,28h22
		v-4H35.4v4h21.8l-20.6,9.1h-0.4l-7.3,8.5V4.5h63.6v62.9h4V0.5H24.9z M5.6,84.4c-1.3-1.3-1.4-3.5-0.2-5l1.5-1.8l5.4,5.4l-1.8,1.5
		C9.1,85.9,6.9,85.8,5.6,84.4z M57.8,32.1l-7.5,17.2l-4.8-4.8l-4.9-4.9L57.8,32.1z"/>
	<polygon class="st0" points="72.8,94.5 94.5,72.8 72.8,72.8 	"/>
	<rect x="50.2" y="13.3" class="st0" width="20" height="4"/>
	<rect x="35.4" y="69" class="st0" width="19.6" height="19.7"/>
</g>
</svg>
