<?xml version="1.0" encoding="utf-8"?>
<!-- Generator: Adobe Illustrator 21.1.0, SVG Export Plug-In . SVG Version: 6.00 Build 0)  -->
<svg version="1.1" id="Layer_1" xmlns="http://www.w3.org/2000/svg" xmlns:xlink="http://www.w3.org/1999/xlink" x="0px" y="0px"
	 viewBox="0 0 97 121.2" style="enable-background:new 0 0 97 121.2;" xml:space="preserve">
<style type="text/css">
	.st0{fill:#097C84;}
</style>
<g>
	<path class="st0" d="M18.5,32.4c0,4.1,3.3,7.3,7.3,7.3c4.1,0,7.3-3.3,7.3-7.3c0-4.1-3.3-7.3-7.3-7.3C21.8,25.1,18.5,28.4,18.5,32.4
		z"/>
	<path class="st0" d="M71.2,0.5L48.5,32.2L25.8,0.5L1.2,35v61.5h13.6h18.7h13h3.9h45.3V35L71.2,0.5z M46.5,92.6h-13V68H14.8v24.6
		H5.1V36.2L25.8,7.3l20.7,28.9V92.6z M60.5,78.5h-3.9v-4.9h3.9V78.5z M60.5,68.7h-3.9v-4.9h3.9V68.7z M60.5,58.8h-3.9v-4.9h3.9V58.8
		z M60.5,49h-3.9v-4.9h3.9V49z M73.1,78.5h-3.9v-4.9h3.9V78.5z M73.1,68.7h-3.9v-4.9h3.9V68.7z M73.1,58.8h-3.9v-4.9h3.9V58.8z
		 M73.1,49h-3.9v-4.9h3.9V49z M85.8,78.5h-3.9v-4.9h3.9V78.5z M85.8,68.7h-3.9v-4.9h3.9V68.7z M85.8,58.8h-3.9v-4.9h3.9V58.8z
		 M85.8,49h-3.9v-4.9h3.9V49z"/>
	<rect x="16.7" y="46.2" class="st0" width="4.3" height="3.9"/>
	<rect x="30.7" y="46.2" class="st0" width="4.3" height="3.9"/>
	<rect x="16.7" y="55" class="st0" width="4.3" height="3.9"/>
	<rect x="30.7" y="55" class="st0" width="4.3" height="3.9"/>
</g>
</svg>
