<?xml version="1.0" encoding="utf-8"?>
<!-- Generator: Adobe Illustrator 21.0.0, SVG Export Plug-In . SVG Version: 6.00 Build 0)  -->
<svg version="1.1" id="Layer_1" xmlns="http://www.w3.org/2000/svg" xmlns:xlink="http://www.w3.org/1999/xlink" x="0px" y="0px"
	 viewBox="0 0 97 121.2" style="enable-background:new 0 0 97 121.2;" xml:space="preserve">
<style type="text/css">
	.st0{fill:#097C84;}
</style>
<g>
	<path class="st0" d="M96.5,8.9c-0.2-2.2-1.4-4.1-3.2-5.3c-1.4-1-3-1.7-4.7-2.3C83-0.4,76.8,0.7,72,4.2c-1,0.7-1.6,2-1.4,3.3
		l0.8,5.6l-6.1-0.4c-1.1-0.1-2.1,0.3-2.8,1.1s-1,1.8-0.9,2.9l0.8,6l-6.1-0.4c-1-0.1-2.1,0.3-2.8,1.1c-0.7,0.8-1.1,1.8-0.9,2.9l0.8,6
		L47.3,32c-1-0.1-2.1,0.3-2.8,1.1s-1,1.8-0.9,2.9l0.8,6l-7.8-0.5l-6.5,7C21.9,46.6,13,49,6.8,55.6C2.4,60.4,0.1,66.5,0.3,73
		s3,12.5,7.8,16.9c4.7,4.3,10.6,6.5,16.5,6.5c6.5,0,13-2.6,17.8-7.8c4.4-4.8,6.7-10.9,6.5-17.4C49,69.1,48.6,67,48,65l46.5-50.1
		C96,13.3,96.7,11.1,96.5,8.9z M24.2,80.8c-1.7,1.3-4.2,1.4-6,0.2c-1.6-1-2.5-2.6-2.6-4.4s0.8-3.5,2.2-4.6c0.9-0.7,2-1,3.2-1
		c1,0,2,0.3,2.8,0.8c1.6,1,2.5,2.6,2.6,4.4C26.5,78.1,25.7,79.7,24.2,80.8z M91.6,12.1L46.3,60.9c-1.3-2.4-2.9-4.6-5-6.5l0,0
		c-2.1-1.9-4.4-3.4-6.9-4.5l3.9-4.2L49,46.4l-1.4-10.3L58,36.7l-1.4-10.3L67,27.1l-1.4-10.3L76,17.4L74.6,7.2
		c3.8-2.6,8.5-3.4,12.8-2.1c1.3,0.4,2.5,1,3.6,1.8c0.8,0.6,1.4,1.5,1.5,2.5S92.3,11.4,91.6,12.1z"/>
	<path class="st0" d="M73.9,81.4l2.4,3.2c1.4-1.1,2.7-2.2,3.9-3.4l-2.8-2.9C76.3,79.4,75.1,80.4,73.9,81.4z"/>
	<path class="st0" d="M80.7,74.8l3.1,2.5c1.1-1.3,2.1-2.8,3.1-4.2l-3.4-2.2C82.6,72.2,81.7,73.5,80.7,74.8z"/>
	<path class="st0" d="M56.7,89.3l0.8,3.9c1.7-0.3,3.4-0.8,5.1-1.3l-1.2-3.8C59.8,88.5,58.2,88.9,56.7,89.3z"/>
	<path class="st0" d="M65.7,86.3l1.7,3.6c1.6-0.7,3.1-1.5,4.6-2.4l-2.1-3.4C68.6,84.9,67.2,85.7,65.7,86.3z"/>
	<path class="st0" d="M89,57.8l3.9,0.9c0.4-1.7,0.7-3.4,0.9-5.2l-4-0.4C89.6,54.6,89.3,56.2,89,57.8z"/>
	<path class="st0" d="M85.8,66.7l3.6,1.8c0.8-1.6,1.4-3.2,2-4.8l-3.8-1.3C87.1,63.8,86.5,65.3,85.8,66.7z"/>
	<path class="st0" d="M89.7,43.5c0.2,1.6,0.3,3.2,0.3,4.8h4c0-1.7-0.1-3.5-0.3-5.2L89.7,43.5z"/>
	<path class="st0" d="M92.8,37.9c-0.4-1.7-0.9-3.4-1.5-5l-3.8,1.4c0.5,1.5,1,3,1.4,4.6L92.8,37.9z"/>
	<path class="st0" d="M46.6,7l-0.2-4c-1.7,0.1-3.5,0.3-5.2,0.5l0.6,3.9C43.4,7.3,45,7.1,46.6,7z"/>
	<path class="st0" d="M28.4,12.2l-1.9-3.5c-1.5,0.8-3,1.8-4.4,2.8l2.3,3.3C25.7,13.8,27,12.9,28.4,12.2z"/>
	<path class="st0" d="M56.8,3.8c-1.7-0.3-3.4-0.5-5.2-0.7l-0.3,4c1.6,0.1,3.2,0.3,4.7,0.6L56.8,3.8z"/>
	<path class="st0" d="M37.2,8.6l-1.1-3.9c-1.7,0.5-3.3,1-4.9,1.7l1.5,3.7C34.2,9.5,35.7,9,37.2,8.6z"/>
	<path class="st0" d="M9.9,33.2l-3.7-1.5c-0.6,1.6-1.2,3.3-1.6,5l3.9,1C8.8,36.2,9.3,34.7,9.9,33.2z"/>
	<path class="st0" d="M7.4,42.4l-4-0.6C3.1,43.5,3,45.3,2.9,47l4,0.1C7,45.6,7.2,44,7.4,42.4z"/>
	<path class="st0" d="M20.7,17.7l-2.7-3c-1.3,1.2-2.5,2.4-3.7,3.7l3,2.6C18.4,19.9,19.5,18.8,20.7,17.7z"/>
	<path class="st0" d="M14.4,24.9l-3.3-2.3c-1,1.4-1.9,2.9-2.7,4.5l3.5,1.9C12.6,27.5,13.5,26.2,14.4,24.9z"/>
</g>
</svg>
