<?xml version="1.0" encoding="utf-8"?>
<!-- Generator: Adobe Illustrator 21.0.0, SVG Export Plug-In . SVG Version: 6.00 Build 0)  -->
<svg version="1.1" id="Layer_1" xmlns="http://www.w3.org/2000/svg" xmlns:xlink="http://www.w3.org/1999/xlink" x="0px" y="0px"
	 viewBox="0 0 97 121.2" style="enable-background:new 0 0 97 121.2;" xml:space="preserve">
<style type="text/css">
	.st0{fill:#097C84;}
</style>
<g>
	<path class="st0" d="M9.4,0.5v96h78.1v-96H9.4z M83.6,92.5H13.4v-88h70.1L83.6,92.5L83.6,92.5z"/>
	<path class="st0" d="M78.3,48H16.7v40h61.6V48z M65.2,51.8h9v4h-9V51.8z M65.2,61.3h9v4h-9V61.3z M31.8,84.3h-9v-4h9V84.3z
		 M31.8,75.2h-9v-4h9V75.2z M31.8,65.3h-9v-4h9V65.3z M31.8,55.8h-9v-4h9V55.8z M45.9,84.3h-9v-4h9V84.3z M45.9,75.2h-9v-4h9V75.2z
		 M45.9,65.3h-9v-4h9V65.3z M45.9,55.8h-9v-4h9V55.8z M60.1,84.3h-9v-4h9V84.3z M60.1,75.2h-9v-4h9V75.2z M60.1,65.3h-9v-4h9V65.3z
		 M60.1,55.8h-9v-4h9V55.8z M74.5,84.3h-9.6v-13h9.6V84.3z"/>
	<path class="st0" d="M78.8,9H18.3v29h60.5V9z M44.5,31.8h-2.2v-4c0-1-0.4-1.5-1.1-1.5c-0.4,0-0.6,0.2-0.9,0.5S40,27.5,40,27.9v3.9
		h-2.2v-4c0-1-0.4-1.5-1.1-1.5c-0.4,0-0.7,0.1-0.9,0.4s-0.3,0.7-0.3,1.2v3.9h-2.2v-7h2.2v1.1l0,0c0.2-0.4,0.5-0.7,0.9-0.9
		c0.4-0.2,0.8-0.4,1.3-0.4c1,0,1.7,0.4,2,1.3c0.5-0.9,1.3-1.3,2.4-1.3c1.5,0,2.3,0.9,2.3,2.8L44.5,31.8L44.5,31.8z M50.1,28.8h-3.7
		v-1.5h3.7V28.8z M58.2,30v1.8h-6.5v-1.7l2.8-2.7c0.6-0.5,1-1,1.2-1.4s0.3-0.8,0.3-1.2c0-0.9-0.5-1.4-1.5-1.4c-0.8,0-1.6,0.3-2.4,1
		v-1.9c0.9-0.6,1.8-0.8,2.9-0.8c1,0,1.8,0.3,2.3,0.8c0.6,0.5,0.8,1.2,0.8,2c0,1.1-0.7,2.3-2.1,3.5l-2,1.8l0,0h4.2V30z M63.5,21v1.3
		h-4.6v-1.2l2-1.9c0.4-0.4,0.7-0.7,0.9-1s0.2-0.5,0.2-0.8c0-0.6-0.3-1-1-1c-0.6,0-1.2,0.2-1.7,0.7v-1.4c0.6-0.4,1.3-0.6,2.1-0.6
		c0.7,0,1.3,0.2,1.7,0.5c0.4,0.4,0.6,0.8,0.6,1.5c0,0.8-0.5,1.7-1.5,2.5L60.7,21l0,0H63.5z"/>
</g>
</svg>
