<?xml version="1.0" encoding="utf-8"?>
<!-- Generator: Adobe Illustrator 21.0.0, SVG Export Plug-In . SVG Version: 6.00 Build 0)  -->
<svg version="1.1" id="Layer_1" xmlns="http://www.w3.org/2000/svg" xmlns:xlink="http://www.w3.org/1999/xlink" x="0px" y="0px"
	 viewBox="0 0 97 121.2" style="enable-background:new 0 0 97 121.2;" xml:space="preserve">
<style type="text/css">
	.st0{fill:#097C84;}
</style>
<g>
	<path class="st0" d="M91.8,77.3l-1-0.5c0.3-0.8,0.4-1.7,0.2-2.5l-7.4-29.2c-0.4-1.7-2-2.9-3.7-2.9H63.4c3.6-6.3,6.4-12.7,6.4-17.3
		C69.8,11.7,59.1,1,45.9,1S22,11.8,22,24.9c0,4.6,2.8,10.9,6.4,17.3h-2.5h-5.2h-1.9L18.7,42l-0.2,0.2h-1.2H14L8.8,62.9l0,0L4.3,80.7
		L0.5,95.9h24h7.1h4h4.7h28.5h7.3h1.3h19.2L91.8,77.3z M89.2,74.8L89.2,74.8L89.2,74.8L89.2,74.8z M45.9,5c11,0,19.9,8.9,19.9,19.9
		c0,8.6-13.2,27.3-19.9,35.9C39.2,52.3,26,33.6,26,24.9C26,14,34.9,5,45.9,5z M30.8,46.2c5.3,8.6,11.4,16.4,13.1,18.6L23.3,46.2H26
		H30.8z M35.6,92V70.5H11l0.1-0.4l6-23.9h0.3L68.3,92H40.2H35.6z M77.3,92H76h-2.2l0.2-0.2l-27.8-25l1.2-1.5c0.4-0.5,4.5-5.5,9-12.2
		v9.3v2.4l2.2,1l0,0l27,12.9l0,0l2.8,1.3l3,11.9L77.3,92L77.3,92z"/>
	<circle class="st0" cx="45.9" cy="25" r="10.2"/>
</g>
</svg>
